# xmcd
# 
# Track frame offsets:
#     150
#     6827
#     19950
#     21701
#     31933
#     35352
#     47652
#     60860
#     71580
#     84432
#     98295
#     100322
#     112801
#     122614
#     134844
#     138882
#     150745
#     153519
#     168130
#     183129
#     196835
#     210015
#     222524
#     235715
#     241764
#     254903
#     255873
#     278263
#     298383
#     317168
#     320579
#     335594
# 
# Disc length: 4545
# 
# Revision: 1
# Processed by: cddbd v1.5.2PL0 Copyright (c) Steve Scherf et al.
# Submitted via: fre:ac v1.0.17
# 
DISCID=b211bf20
DTITLE=B. B. KING - THE COMPLETE RPM - KENT RECORDING BOX
DYEAR=2015
DGENRE=Blues
TTITLE0=The Woman I Love (1954) take 1-2 (incomplete)
TTITLE1=The Woman I Love (1954) take 3
TTITLE2=The Woman I Love (1954) take 4 (incomplete)
TTITLE3=The Woman I Love (1954) take 5
TTITLE4=The Woman I Love (1954) take 6, 7-8 (incomplete)
TTITLE5=The Woman I Love (1954) take 9
TTITLE6=When My Heart Beats Like A Hammer (1954) take 1
TTITLE7=When My Heart Beats Like A Hammer (1954) take 2-4, 6 (incomplete)
TTITLE8=When My Heart Beats Like A Hammer (1962) take 1-3 (incomplete)
TTITLE9=When My Heart Beats Like A Hammer (1962) take 5
TTITLE10=Don't You Want A Man Like Me (1954) take 1-2 (incomplete)
TTITLE11=Don't You Want A Man Like Me (1954) take 3
TTITLE12=Don't You Want A Man Like Me (1954) take 4-6 (incomoplete)
TTITLE13=Don't You Want A Man Like Me (1954) take 7
TTITLE14=Don't You Want A Man Like Me (1954) take 8 (incomplete)
TTITLE15=Don't You Want A Man Like Me (1954) take 9
TTITLE16=Confessin' The Blues (1956) incomplete take
TTITLE17=Confessin' The Blues (1956) take 5
TTITLE18=Confessin' The Blues (1956) take 6-7 (incomplete)
TTITLE19=Confessin' The Blues (1956) take 8
TTITLE20=I Wonder Why (1962) take 1
TTITLE21=I Wonder Why (1962) take 2-3 (incomplete)
TTITLE22=I Wonder Why (1962) take 4
TTITLE23=I Wonder Why (1962) take 5-6 and 7 (incomplete)
TTITLE24=I Wonder Why (1962) take 8
TTITLE25=Going Down Slow (1959) incomplete take
TTITLE26=Going Down Slow (1959) take 2
TTITLE27=Going Down Slow (1959) take 3 (incomplete)
TTITLE28=Going Down Slow (1962) take 1
TTITLE29=Going Down Slow (1962) take 2-4 (incomplete)
TTITLE30=Going Down Slow (1962) take 5
TTITLE31=Going Down Slow (1962) take 6-7 (incomplete)
EXTD=
EXTT0=
EXTT1=
EXTT2=
EXTT3=
EXTT4=
EXTT5=
EXTT6=
EXTT7=
EXTT8=
EXTT9=
EXTT10=
EXTT11=
EXTT12=
EXTT13=
EXTT14=
EXTT15=
EXTT16=
EXTT17=
EXTT18=
EXTT19=
EXTT20=
EXTT21=
EXTT22=
EXTT23=
EXTT24=
EXTT25=
EXTT26=
EXTT27=
EXTT28=
EXTT29=
EXTT30=
EXTT31=
PLAYORDER=
